<svg xmlns="http://www.w3.org/2000/svg" width="20" height="20" viewBox="0 0 48 48"><path fill="#EA4335" d="M24 9.5c3.54 0 6.71 1.22 9.22 3.6l6.85-6.85C35.92 2.59 30.29 0 24 0 14.64 0 6.53 5.36 2.56 13.14l7.98 6.2C12.56 13.33 17.84 9.5 24 9.5z"></path><path fill="#34A853" d="M46.98 24.5c0-1.57-.14-3.09-.41-4.56H24v9.11h12.99c-.56 2.86-2.27 5.29-4.85 6.94l7.48 5.81C43.86 37.1 46.98 31.34 46.98 24.5z"></path><path fill="#4A90E2" d="M24 48c6.48 0 11.91-2.13 15.88-5.8l-7.48-5.81c-2.06 1.39-4.7 2.22-8.4 2.22-6.44 0-11.9-4.35-13.84-10.24l-8.06 6.23C6.53 42.63 14.64 48 24 48z"></path><path fill="#FBBC05" d="M10.16 28.37A14.49 14.49 0 0 1 9.5 24c0-1.52.26-2.99.72-4.37l-7.98-6.2A23.9 23.9 0 0 0 0 24c0 3.87.93 7.52 2.56 10.86z"></path></svg>
